<svg t="1716349150276" class="icon" viewBox="0 0 1024 1024" version="1.1" xmlns="http://www.w3.org/2000/svg" p-id="10962" data-spm-anchor-id="a313x.search_index.0.i0.7d903a81QU2PQY" width="150" height="150"><path d="M317.44 0H102.4C47.786667 0 0 47.786667 0 102.4v215.04c0 10.24 6.826667 17.066667 17.066667 17.066667s17.066667-6.826667 17.066666-17.066667V102.4c0-37.546667 30.72-68.266667 68.266667-68.266667h215.04c10.24 0 17.066667-6.826667 17.066667-17.066666S327.68 0 317.44 0zM921.6 0h-215.04c-10.24 0-17.066667 6.826667-17.066667 17.066667s6.826667 17.066667 17.066667 17.066666H921.6c37.546667 0 68.266667 30.72 68.266667 68.266667v215.04c0 10.24 6.826667 17.066667 17.066666 17.066667s17.066667-6.826667 17.066667-17.066667V102.4c0-54.613333-47.786667-102.4-102.4-102.4zM317.44 989.866667H102.4c-37.546667 0-68.266667-30.72-68.266667-68.266667v-215.04c0-10.24-6.826667-17.066667-17.066666-17.066667s-17.066667 6.826667-17.066667 17.066667V921.6c0 58.026667 47.786667 102.4 102.4 102.4h215.04c10.24 0 17.066667-6.826667 17.066667-17.066667s-6.826667-17.066667-17.066667-17.066666zM1006.933333 689.493333c-10.24 0-17.066667 6.826667-17.066666 17.066667V921.6c0 37.546667-30.72 68.266667-68.266667 68.266667h-215.04c-10.24 0-17.066667 6.826667-17.066667 17.066666s6.826667 17.066667 17.066667 17.066667H921.6c58.026667 0 102.4-47.786667 102.4-102.4v-215.04c0-10.24-6.826667-17.066667-17.066667-17.066667zM563.2 409.6h-102.4c-27.306667 0-51.2 23.893333-51.2 51.2v102.4c0 27.306667 23.893333 51.2 51.2 51.2h102.4c27.306667 0 51.2-23.893333 51.2-51.2v-102.4c0-27.306667-23.893333-51.2-51.2-51.2zM904.533333 614.4c27.306667 0 51.2-23.893333 51.2-51.2v-102.4c0-27.306667-23.893333-51.2-51.2-51.2h-102.4c-27.306667 0-51.2 23.893333-51.2 51.2v102.4c0 27.306667 23.893333 51.2 51.2 51.2h102.4zM221.866667 614.4c27.306667 0 51.2-23.893333 51.2-51.2v-102.4c0-27.306667-23.893333-51.2-51.2-51.2h-102.4c-27.306667 0-51.2 23.893333-51.2 51.2v102.4c0 27.306667 23.893333 51.2 51.2 51.2h102.4zM563.2 750.933333h-102.4c-27.306667 0-51.2 23.893333-51.2 51.2v102.4c0 27.306667 23.893333 51.2 51.2 51.2h102.4c27.306667 0 51.2-23.893333 51.2-51.2v-102.4c0-27.306667-23.893333-51.2-51.2-51.2zM563.2 68.266667h-102.4c-27.306667 0-51.2 23.893333-51.2 51.2v102.4c0 27.306667 23.893333 51.2 51.2 51.2h102.4c27.306667 0 51.2-23.893333 51.2-51.2v-102.4c0-27.306667-23.893333-51.2-51.2-51.2z" fill="#e0620d" p-id="10963"></path></svg>